<svg width="1510" height="639" viewBox="0 0 1510 639" fill="none" xmlns="http://www.w3.org/2000/svg">
<path opacity="0.3" d="M1449.05 633.736C1481.52 629.744 1498.29 574.33 1505.36 528.32C1511.49 487.112 1520.98 424.416 1461.05 384.586C1409.61 350.356 1327.11 342.814 1264.42 361.154C1241.95 367.766 1223.45 378.316 1223.45 378.316C1216.73 382.083 1211.65 385.604 1208.2 387.867C1220.89 383.112 1261.14 366.579 1276.84 333.378C1300.56 283.514 1248.62 239.669 1239.96 232.298C1192.88 192.52 1102.14 164.835 1033.45 188.842C993.944 202.595 961.242 233.577 948.994 263.757C948.262 265.777 947.531 267.419 947.165 268.555C962.422 255.084 989.319 227.367 995.99 188.691C1006.74 126.253 959.183 70.7892 908.265 41.2404C797.039 -23.0806 586.87 -11.2802 502.513 83.1132C431.792 162.131 501.203 273.46 505.521 279.802C507.14 282.211 508.94 284.622 508.94 284.622C517.039 295.785 525.509 304.926 532.719 312.037C533.247 271.06 505.345 233.762 460.884 218.658C384.793 192.929 284.536 235.907 262.617 285.779C251.476 311.03 257.855 344.826 277.114 371.085C281.254 376.666 285.399 381.11 288.463 384.284C283.78 378.574 248.115 336.439 177.924 329.073C108.818 321.711 35.5819 351.139 13.3095 398.858C-15.8993 461.222 60.9897 513.262 72.5556 517.482C75.9891 518.761 79.6046 519.787 79.6046 519.787C90.0892 522.865 99.4956 524.042 106.19 524.575C103.295 524.31 43.0466 519.64 13.976 547.728C-14.9131 575.69 7.90923 616.003 33.5329 634.825C77.2021 666.748 1414.07 646.71 1449.05 633.736Z" fill="#0D5FFF"/>
</svg>
